<svg xmlns="http://www.w3.org/2000/svg" viewBox="-102 -102 1482 1484">
  <style>
    /* Waage folgt dem Browser-Theme: schwarz auf hell, weiss auf dunkel */
    :root { --ink: #000000; }
    @media (prefers-color-scheme: dark) { :root { --ink: #ffffff; } }
  </style>
  <g transform="translate(0.000000,1280.000000) scale(0.100000,-0.100000)" fill="var(--ink)" stroke="none">
<path d="M6263 12786 c-176 -57 -293 -236 -263 -397 19 -99 90 -204 164 -244
l36 -20 0 -85 0 -86 -68 -22 c-37 -12 -83 -35 -102 -51 -31 -26 -34 -31 -25
-56 7 -20 29 -39 73 -63 60 -33 62 -35 62 -74 0 -35 -6 -45 -42 -78 l-43 -38
-3 -146 c-2 -81 -7 -146 -10 -144 -209 111 -439 192 -687 239 -108 21 -495 19
-607 -4 -194 -39 -380 -119 -732 -314 -115 -64 -238 -128 -275 -144 -201 -84
-390 -53 -678 113 -150 86 -195 101 -266 88 -93 -18 -229 -100 -250 -151 -4
-10 -15 -4 -41 25 l-35 39 -58 -29 c-77 -37 -173 -130 -173 -167 0 -78 161
-264 221 -255 16 2 31 19 48 53 21 41 31 50 53 50 30 0 136 -85 185 -150 81
-105 84 -282 7 -301 -34 -9 -102 38 -129 89 -22 41 -39 45 -103 23 -46 -17
-110 -56 -116 -72 -5 -12 99 -219 124 -250 8 -8 31 -24 52 -35 41 -21 81 -79
54 -79 -19 0 -31 -124 -22 -229 l7 -78 -76 -6 c-43 -3 -87 -12 -100 -21 l-23
-15 5 -208 c5 -212 -10 -588 -27 -678 -12 -59 -38 -99 -68 -103 -12 -2 -51 11
-87 29 -64 31 -66 32 -112 17 -55 -18 -67 -43 -59 -122 6 -59 25 -89 65 -106
17 -7 31 -18 31 -24 0 -10 -1117 -3245 -1440 -4171 -180 -515 -260 -749 -257
-752 2 -2 43 108 91 244 49 137 225 633 393 1103 308 863 355 995 645 1820
137 390 344 992 549 1594 l54 158 55 2 c125 6 232 65 265 148 10 26 22 107 31
212 8 93 19 186 24 205 11 41 27 68 34 60 16 -16 1 -376 -16 -397 -8 -10 -14
-56 -16 -131 -4 -130 6 -176 37 -168 18 4 20 -3 25 -67 3 -39 19 -1041 36
-2226 16 -1185 33 -2262 36 -2392 l7 -238 -184 0 c-393 0 -983 -26 -1409 -61
-602 -49 -1026 -128 -1112 -206 -26 -24 -23 -30 30 -57 54 -28 52 -34 -3 -10
-20 8 -39 14 -41 12 -7 -8 46 -106 93 -173 159 -224 449 -486 736 -665 427
-267 876 -419 1452 -492 154 -19 655 -16 840 6 745 87 1390 353 1915 790 184
154 375 366 435 485 29 58 29 57 -30 37 -11 -4 -3 2 18 14 43 24 46 36 15 50
-138 58 -910 158 -1698 220 -307 24 -801 50 -945 50 l-105 0 0 2083 c0 1146
-3 2253 -7 2460 l-6 375 46 7 c45 7 46 8 53 51 11 77 0 225 -21 264 -30 58
-34 380 -5 380 19 0 40 -110 54 -276 11 -135 19 -181 37 -218 37 -80 132 -126
259 -126 l67 0 98 -287 c299 -883 670 -1944 1163 -3323 121 -338 272 -765 337
-948 65 -183 120 -331 122 -329 2 2 -31 103 -73 223 -71 205 -96 278 -194 559
-49 140 -158 454 -854 2466 -311 900 -566 1640 -566 1645 1 5 15 18 33 29 18
12 37 35 44 55 14 38 8 126 -9 147 -20 24 -104 15 -169 -18 l-61 -30 -25 23
c-64 59 -74 142 -78 618 l-4 375 -33 12 c-18 7 -61 12 -95 12 l-62 1 5 148 c7
200 9 210 42 218 75 17 148 81 184 159 19 43 23 66 23 160 0 135 -13 191 -76
324 -27 58 -47 111 -44 119 8 22 67 10 277 -57 210 -67 376 -107 488 -117 118
-10 223 14 550 126 162 56 349 115 415 131 358 88 658 76 985 -38 94 -33 281
-120 360 -168 l59 -36 3 -169 c3 -164 4 -169 28 -195 14 -15 42 -36 63 -46 20
-11 37 -22 37 -25 0 -3 -11 -20 -24 -37 -26 -35 -59 -99 -70 -134 l-7 -23 271
0 271 0 -6 23 c-10 31 -53 106 -82 141 l-24 28 49 23 c88 41 92 52 92 244 l0
167 78 46 c189 112 395 190 620 235 64 13 135 17 272 17 279 0 413 -29 867
-189 134 -47 291 -94 350 -106 99 -20 117 -21 213 -11 126 14 275 51 508 126
183 59 219 66 229 40 3 -9 -15 -58 -40 -112 -26 -53 -54 -128 -62 -166 -18
-76 -21 -233 -6 -284 27 -92 100 -166 192 -194 l37 -11 6 -101 c3 -55 7 -135
8 -176 l3 -75 -82 -6 c-46 -3 -89 -12 -98 -19 -13 -11 -15 -59 -15 -339 0
-314 -10 -515 -31 -593 -10 -40 -55 -84 -95 -94 -19 -5 -32 0 -52 19 -38 34
-65 47 -104 47 -48 0 -60 -12 -65 -63 -8 -69 5 -117 39 -148 l30 -28 -567
-1638 c-312 -901 -695 -2007 -851 -2457 -157 -450 -283 -820 -281 -822 2 -2
45 114 96 258 51 145 230 648 398 1118 522 1464 878 2482 1139 3255 l95 281
63 -4 c105 -7 176 29 217 110 19 37 24 70 49 308 6 58 15 123 21 144 13 46 51
88 73 80 23 -9 28 -56 24 -230 -3 -126 -8 -165 -21 -189 -23 -42 -25 -279 -2
-292 13 -8 15 -289 13 -2468 l-3 -2460 -85 -2 c-963 -25 -1383 -49 -1825 -104
-400 -49 -650 -108 -717 -167 -26 -22 -23 -29 30 -56 26 -14 43 -25 37 -25 -5
0 -21 6 -35 14 -49 28 -52 17 -15 -52 116 -222 411 -514 736 -731 416 -278
885 -448 1439 -524 210 -29 702 -31 915 -5 690 86 1247 296 1750 661 196 142
418 352 524 495 63 85 106 159 98 167 -2 3 -17 0 -32 -6 -43 -17 -40 -5 5 15
47 21 49 29 13 44 -234 94 -1687 245 -2565 268 l-258 6 0 97 c0 53 5 369 10
701 19 1103 60 3862 60 3997 l0 132 35 0 c31 0 35 3 41 35 11 61 0 237 -18
270 -12 22 -18 75 -23 207 -8 189 -4 211 36 201 35 -10 57 -72 69 -194 27
-282 29 -290 55 -335 16 -27 43 -54 73 -71 42 -25 57 -28 134 -28 l88 0 109
-325 c214 -639 575 -1673 983 -2815 116 -324 304 -855 419 -1179 187 -526 219
-613 219 -594 0 2 -84 245 -186 539 -102 294 -248 716 -326 939 -77 223 -376
1088 -665 1922 l-525 1517 33 29 c31 28 34 35 33 89 0 63 -20 116 -46 121 -9
2 -50 -13 -91 -33 -71 -34 -77 -35 -109 -22 -41 18 -62 42 -76 87 -25 85 -46
337 -58 712 -7 236 2 217 -109 227 l-70 6 -9 93 c-8 87 -7 95 11 107 14 9 22
30 26 63 8 69 24 96 68 121 48 28 72 60 137 184 l51 97 -33 25 c-43 33 -115
65 -148 65 -20 0 -31 -8 -42 -28 -22 -42 -92 -102 -120 -102 -31 0 -62 39 -71
90 -9 52 17 150 55 205 36 52 166 165 190 165 22 0 44 -26 63 -72 12 -29 22
-38 40 -38 54 0 179 127 213 217 16 40 15 43 -6 78 -40 65 -217 178 -228 146
-2 -7 -15 -24 -27 -39 l-24 -27 -35 41 c-66 77 -231 143 -309 124 -47 -11 -63
-19 -167 -79 -205 -118 -344 -165 -490 -165 -124 0 -210 33 -487 190 -295 168
-521 266 -703 305 -92 20 -134 23 -340 23 -259 1 -314 -7 -530 -69 -132 -39
-252 -86 -369 -144 -44 -23 -83 -41 -86 -41 -3 0 -5 66 -5 146 l0 147 -36 33
c-19 19 -38 34 -42 34 -4 0 -5 21 -3 47 3 46 5 49 54 74 28 14 60 38 71 52 19
26 19 27 0 48 -23 25 -92 62 -151 79 l-43 13 0 83 c0 82 0 82 33 103 51 32
113 101 144 161 24 48 28 66 28 140 0 73 -4 93 -28 143 -79 159 -267 251 -414
203z m-3505 -3122 c8 -2 12 -28 12 -83 0 -63 -3 -80 -16 -85 -24 -9 -69 -7
-99 4 -25 10 -26 12 -23 87 3 73 4 78 28 84 23 6 67 3 98 -7z m7290 10 c21 -6
22 -12 22 -89 0 -77 -1 -83 -22 -89 -35 -9 -114 -7 -142 4 -25 9 -26 13 -26
84 0 61 3 77 18 85 19 11 114 14 150 5z"/>
<path d="M6090 6060 l0 -4010 -121 0 -121 0 7 -27 c3 -15 28 -73 55 -130 l49
-103 -49 -103 -49 -104 -143 -7 c-615 -29 -1217 -143 -1412 -266 l-46 -30 0
-165 0 -165 -36 0 c-61 0 -170 -30 -218 -60 -42 -27 -46 -28 -56 -12 -7 12 -9
-63 -7 -245 l2 -262 35 -36 c143 -150 667 -254 1550 -311 336 -22 1321 -25
1630 -6 757 48 1222 124 1454 238 146 72 146 73 146 381 0 147 -4 242 -9 234
-7 -11 -14 -9 -37 13 -36 33 -140 66 -210 66 l-54 0 0 161 0 161 -30 28 c-137
128 -665 227 -1462 276 l-107 6 -42 77 c-23 42 -50 88 -60 103 l-19 26 42 68
c46 77 88 162 88 182 0 9 -32 12 -125 12 l-125 0 0 4010 0 4010 -260 0 -260 0
0 -4010z"/>
<path d="M4941 3575 c1 -19 18 -51 18 -35 0 8 -4 22 -9 30 -5 8 -9 11 -9 5z"/>
<path d="M7726 3545 c-9 -26 -7 -32 5 -12 6 10 9 21 6 23 -2 3 -7 -2 -11 -11z"/>
<path d="M4960 3515 c0 -5 5 -17 10 -25 5 -8 10 -10 10 -5 0 6 -5 17 -10 25
-5 8 -10 11 -10 5z"/>
<path d="M12250 3505 c0 -5 5 -17 10 -25 5 -8 10 -10 10 -5 0 6 -5 17 -10 25
-5 8 -10 11 -10 5z"/>
  </g>
</svg>
